#!OML:ASF F:\VICON\USERDATA\INSTALL\Justin_Nancy\Justin_Nancy.ASF
:FULLY-SPECIFIED
:DEGREES
33
root 13.5322 16.4338 -18.4194 -0.197089 -16.8728 8.48938
lowerback 9.03322 3.03412 -2.42687
upperback 1.59102 3.79841 0.216424
thorax -3.57641 1.90975 1.12671
lowerneck -19.091 -5.15031 -10.4354
upperneck 14.4875 -5.84436 8.90673
head 8.20626 -2.48472 3.95496
rclavicle 2.3059e-014 -1.43125e-014
rhumerus -46.4423 9.76499 -91.0454
rradius 96.1666
rwrist -2.65125
rhand -15.186 25.3352
rfingers 7.12502
rthumb 10.9853 -4.35742
lclavicle 2.3059e-014 -1.43125e-014
lhumerus -52.4859 -10.0619 86.7288
lradius 104.536
lwrist 17.339
lhand -18.7836 9.76527
lfingers 7.12502
lthumb 7.51402 39.6118
rfemur 2.79897 11.8819 25.3961
rtibia 75.7779
rfoot 8.19037 -4.96323
rtoes 7.91402
lfemur -25.9268 -8.06907 -10.4373
ltibia 37.6477
lfoot -12.8936 -13.2994
ltoes -19.5014
34
root 13.4414 16.3481 -18.1074 -0.729957 -16.9615 10.3162
lowerback 9.10366 2.80786 -4.08888
upperback 1.9994 3.31354 -0.515487
thorax -3.22047 1.67278 1.36664
lowerneck -20.3596 -5.32466 -10.0331
upperneck 14.7353 -6.12756 9.10223
head 8.53249 -2.5431 3.90787
rclavicle -9.93923e-015 5.40694e-014
rhumerus -45.5804 8.5055 -91.4437
rradius 95.2499
rwrist -2.48458
rhand -15.6102 25.4496
rfingers 7.12502
rthumb 10.5762 -4.26432
lclavicle -9.93923e-015 5.40694e-014
lhumerus -50.4189 -10.3147 85.5643
lradius 104.162
lwrist 17.9627
lhand -18.7847 9.39228
lfingers 7.12502
lthumb 7.51296 39.2389
rfemur 0.327921 10.9166 23.032
rtibia 79.6479
rfoot 7.31965 -4.00948
rtoes 7.61517
lfemur -25.0201 -7.70114 -12.7759
ltibia 38.6329
lfoot -14.4523 -12.4137
ltoes -8.26064
35
root 13.3438 16.2637 -17.8023 -1.43593 -17.0016 12.7734
lowerback 9.28157 2.65936 -6.75858
upperback 1.54997 2.80178 -1.18816
thorax -3.85069 1.46368 2.20088
lowerneck -17.9583 -5.16684 -9.94875
upperneck 13.8266 -6.15249 9.34281
head 7.82364 -2.59214 3.98732
rclavicle -9.34288e-015 -1.43125e-014
rhumerus -46.7906 7.15218 -91.8179
rradius 94.6994
rwrist -2.52559
rhand -15.7311 25.4735
rfingers 7.12502
rthumb 10.4596 -4.24629
lclavicle -9.34288e-015 -1.43125e-014
lhumerus -50.2279 -10.6478 84.9923
lradius 103.919
lwrist 18.3905
lhand -18.7681 9.38176
lfingers 7.12502
lthumb 7.529 39.2278
rfemur -2.12074 9.70988 19.8051
rtibia 83.3654
rfoot 6.29234 -2.75361
rtoes 6.3494
lfemur -23.8484 -7.10044 -15.7807
ltibia 39.0802
lfoot -16.2538 -11.7186
ltoes -26.5767
36
root 13.2524 16.163 -17.5244 -1.51259 -17.2619 13.5767
lowerback 9.60827 2.58288 -8.04944
upperback 1.05523 2.50583 -1.30573
thorax -4.5768 1.36895 2.81147
lowerneck -16.1964 -5.12405 -9.92548
upperneck 13.1143 -6.2372 9.45273
head 7.29891 -2.67099 4.02329
rclavicle 2.56432e-014 1.82882e-014
rhumerus -48.0976 5.88712 -91.9308
rradius 94.4455
rwrist -3.02439
rhand -16.6795 25.6384
rfingers 7.12502
rthumb 9.54457 -4.12546
lclavicle 2.56432e-014 1.82882e-014
lhumerus -49.7592 -11.0757 84.647
lradius 103.702
lwrist 18.6095
lhand -18.9602 9.79771
lfingers 7.12502
lthumb 7.34355 39.6503
rfemur -4.84949 8.73281 18.541
rtibia 86.8403
rfoot 4.36779 -2.43344
rtoes 7.69601
lfemur -22.9535 -6.27884 -16.8545
ltibia 39.4012
lfoot -19.1835 -10.7913
ltoes -37.6732
37
root 13.166 16.0929 -17.2347 -1.69137 -18.1033 13.9676
lowerback 10.0554 2.61388 -8.70868
upperback 0.778615 2.40918 -1.32804
thorax -5.13679 1.3598 3.14561
lowerneck -15.4208 -5.12965 -10.0627
upperneck 12.9187 -6.29423 9.57579
head 7.11686 -2.71654 4.08815
rclavicle -1.25234e-014 3.10104e-014
rhumerus -49.1603 4.8238 -91.9626
rradius 94.3134
rwrist -3.55095
rhand -17.372 25.1325
rfingers 7.12502
rthumb 8.87641 -4.66082
lclavicle -1.25234e-014 3.10104e-014
lhumerus -48.9355 -11.1977 84.3211
lradius 103.547
lwrist 18.3801
lhand -18.9357 9.57995
lfingers 7.12502
lthumb 7.3672 39.4317
rfemur -7.43788 8.28938 17.7563
rtibia 89.8973
rfoot 2.96233 -2.12617
rtoes 7.64884
lfemur -21.6244 -5.85918 -17.3918
ltibia 39.7478
lfoot -20.9571 -9.83146
ltoes -29.6428
38
root 13.0804 16.0586 -16.9255 -1.72917 -19.3691 13.809
lowerback 10.1796 2.54724 -8.54078
upperback 0.969268 2.34054 -1.2377
thorax -4.99237 1.31239 3.15873
lowerneck -16.33 -5.15303 -10.3076
upperneck 13.1743 -6.22085 9.69657
head 7.36074 -2.65798 4.16909
rclavicle 4.05521e-014 6.04305e-014
rhumerus -49.4739 4.40513 -92.0955
rradius 94.5237
rwrist -4.36027
rhand -17.7914 24.6969
rfingers 7.12502
rthumb 8.47161 -5.11321
lclavicle 4.05521e-014 6.04305e-014
lhumerus -47.1807 -10.7757 83.7751
lradius 103.372
lwrist 18.0566
lhand -19.2173 8.68705
lfingers 7.12502
lthumb 7.0954 38.5481
rfemur -10.0605 8.21706 17.6044
rtibia 92.4827
rfoot 2.14289 -2.08341
rtoes 9.19963
lfemur -20.1951 -5.88748 -17.3249
ltibia 40.2589
lfoot -22.6887 -9.62265
ltoes -13.8568
39
root 12.996 16.0191 -16.6799 -0.804207 -18.9878 13.3359
lowerback 10.3128 1.99474 -7.78525
upperback 0.805165 1.66272 -1.42006
thorax -5.13082 0.970211 2.6429
lowerneck -17.2033 -5.19486 -9.66895
upperneck 13.4457 -6.35655 9.60557
head 7.59017 -2.67277 4.00853
rclavicle 2.18663e-015 1.98785e-014
rhumerus -50.1527 3.45252 -92.5949
rradius 95.3452
rwrist -5.42738
rhand -17.6541 24.3466
rfingers 7.12502
rthumb 8.60415 -5.45807
lclavicle 2.18663e-015 1.98785e-014
lhumerus -45.4693 -11.2292 82.8764
lradius 103.519
lwrist 18.0567
lhand -19.8919 8.77336
lfingers 7.12502
lthumb 6.44422 38.6553
rfemur -13.8146 6.18154 17.6286
rtibia 94.9568
rfoot 1.65161 -1.9954
rtoes 10.204
lfemur -20.4224 -6.68474 -16.7656
ltibia 40.8753
lfoot -23.3853 -8.16229
ltoes -14.2203
40
root 12.9134 15.9854 -16.4213 0.0188748 -18.7908 12.7813
lowerback 10.29 0.968559 -7.36848
upperback 0.603062 0.374597 -0.850834
thorax -5.19476 0.342403 3.20169
lowerneck -18.0215 -4.86521 -10.6985
upperneck 14.044 -5.61134 9.66416
head 7.8824 -2.34512 4.29421
rclavicle -6.0033e-014 2.8625e-014
rhumerus -51.2256 4.90981 -92.7187
rradius 96.2999
rwrist -6.78378
rhand -17.6622 24.3745
rfingers 7.12502
rthumb 8.59638 -5.43052
lclavicle -6.0033e-014 2.8625e-014
lhumerus -44.7474 -9.47732 82.6488
lradius 104.196
lwrist 18.1833
lhand -19.6334 9.0051
lfingers 7.12502
lthumb 6.69368 38.8793
rfemur -17.4055 4.29516 17.8159
rtibia 97.0245
rfoot 0.957269 -1.72755
rtoes 9.9201
lfemur -20.3905 -7.11712 -16.2027
ltibia 41.3649
lfoot -24.5749 -7.60342
ltoes -16.3952
41
root 12.7974 15.9583 -16.1583 0.522301 -19.501 11.7443
lowerback 10.5411 0.642775 -6.81163
upperback 0.677345 0.0171178 -0.358925
thorax -5.21585 0.158582 3.46032
lowerneck -18.9705 -4.87424 -10.8636
upperneck 14.2546 -5.47473 9.56826
head 8.10272 -2.27381 4.30252
rclavicle -3.65764e-014 -2.46493e-014
rhumerus -51.9254 5.23365 -92.8842
rradius 97.2797
rwrist -8.09312
rhand -17.9827 24.5918
rfingers 7.12502
rthumb 8.28701 -5.22566
lclavicle -3.65764e-014 -2.46493e-014
lhumerus -43.5134 -8.98522 82.3684
lradius 104.912
lwrist 18.8353
lhand -18.8858 8.91012
lfingers 7.12502
lthumb 7.41534 38.7602
rfemur -20.6076 3.52494 19.0904
rtibia 98.7011
rfoot 0.328255 -1.84481
rtoes 9.78269
lfemur -19.677 -6.80895 -15.0606
ltibia 41.9062
lfoot -25.3866 -7.26274
ltoes -16.4055
42
root 12.7157 15.9664 -15.8907 0.539287 -19.5614 12.9548
lowerback 10.6049 0.272518 -7.6101
upperback 0.741114 -0.596548 -0.773352
thorax -5.11405 -0.135823 3.56339
lowerneck -19.7222 -4.95534 -10.6331
upperneck 14.1637 -5.57108 9.5944
head 8.20674 -2.28426 4.25396
rclavicle -4.13472e-014 -1.59028e-015
rhumerus -52.3766 5.19076 -93.2202
rradius 98.1107
rwrist -9.31351
rhand -18.2281 25.0666
rfingers 7.12502
rthumb 8.0502 -4.76007
lclavicle -4.13472e-014 -1.59028e-015
lhumerus -41.9211 -9.15627 81.9049
lradius 105.49
lwrist 19.8741
lhand -19.6935 8.53106
lfingers 7.12502
lthumb 6.63569 38.4071
rfemur -23.532 1.81429 17.288
rtibia 99.9028
rfoot -0.811716 -0.94872
rtoes 9.73639
lfemur -18.8825 -7.43984 -16.6345
ltibia 41.9971
lfoot -25.7951 -6.05937
ltoes -17.8494
43
root 12.6122 15.9707 -15.6206 0.385167 -20.5627 13.0709
lowerback 10.7131 0.0825923 -7.80622
upperback 0.95122 -0.871531 -0.752425
thorax -4.91658 -0.28038 3.73596
lowerneck -20.1039 -4.91619 -10.5224
upperneck 14.0677 -5.49722 9.56346
head 8.22777 -2.23639 4.23149
rclavicle 3.06128e-014 4.05521e-014
rhumerus -53.0758 5.80418 -93.5919
rradius 99.0337
rwrist -10.3323
rhand -17.3463 26.0368
rfingers 7.12502
rthumb 8.90118 -3.75544
lclavicle 3.06128e-014 4.05521e-014
lhumerus -40.3269 -8.91427 81.4501
lradius 105.83
lwrist 20.4152
lhand -19.4594 9.19752
lfingers 7.12502
lthumb 6.86171 39.0663
rfemur -25.8937 1.39524 17.1629
rtibia 100.671
rfoot -1.858 -0.630967
rtoes 9.409
lfemur -17.2106 -6.88552 -17.0781
ltibia 41.9438
lfoot -26.5482 -3.89759
ltoes -24.1218
44
root 12.4958 15.9853 -15.3538 0.352983 -21.7976 13.3013
lowerback 10.7472 -0.031948 -8.24396
upperback 0.917324 -1.07948 -0.711552
thorax -4.93804 -0.371739 4.05592
lowerneck -19.8937 -4.77595 -10.4484
upperneck 13.7972 -5.30897 9.45764
head 8.07534 -2.15929 4.20631
rclavicle 1.43125e-014 -3.18055e-015
rhumerus -54.2017 6.56916 -93.8646
rradius 100.009
rwrist -10.7039
rhand -15.7572 26.2615
rfingers 7.12502
rthumb 10.4344 -3.45956
lclavicle 1.43125e-014 -3.18055e-015
lhumerus -40.0995 -8.10707 81.0977
lradius 106.929
lwrist 20.2867
lhand -18.0158 10.7652
lfingers 7.12502
lthumb 8.25506 40.5839
rfemur -28.5414 1.2159 17.0442
rtibia 101.061
rfoot -2.97165 -0.230954
rtoes 7.37286
lfemur -15.6779 -6.73195 -17.4533
ltibia 41.3787
lfoot -26.2702 -3.34306
ltoes -24.1997
45
root 12.3685 16.0206 -15.1085 0.604411 -22.3861 13.5174
lowerback 11.0695 -0.325924 -8.67412
upperback 0.629855 -1.56969 -0.691601
thorax -5.34923 -0.576472 4.40017
lowerneck -19.8295 -4.61266 -10.3011
upperneck 13.7562 -5.13022 9.45182
head 8.02739 -2.0691 4.20432
rclavicle -8.18993e-014 5.56597e-015
rhumerus -55.3621 7.09858 -94.2406
rradius 100.772
rwrist -10.6741
rhand -15.6801 26.1039
rfingers 7.12502
rthumb 10.5087 -3.61346
lclavicle -8.18993e-014 5.56597e-015
lhumerus -39.8504 -8.35662 81.0775
lradius 107.695
lwrist 23.009
lhand -19.2749 9.11566
lfingers 7.12502
lthumb 7.03982 38.9786
rfemur -31.4324 0.34053 17.0629
rtibia 101.026
rfoot -4.35838 0.194321
rtoes 1.48449
lfemur -14.4245 -7.01379 -17.7629
ltibia 40.7199
lfoot -26.0026 -2.62349
ltoes -26.6184
46
root 12.2347 16.085 -14.8183 0.479995 -23.5624 13.7096
lowerback 11.4242 -0.423531 -8.94296
upperback 0.453167 -1.78064 -0.669687
thorax -5.69982 -0.651444 4.61825
lowerneck -20.174 -4.52124 -10.3476
upperneck 14.1322 -5.00167 9.55201
head 8.20242 -1.99248 4.26818
rclavicle -4.29375e-014 1.11319e-014
rhumerus -56.2849 7.66007 -94.4838
rradius 101.191
rwrist -10.3444
rhand -16.7213 25.6765
rfingers 7.12502
rthumb 9.50428 -4.08919
lclavicle -4.29375e-014 1.11319e-014
lhumerus -39.4359 -8.56147 80.9604
lradius 108.143
lwrist 23.0435
lhand -19.6319 9.41994
lfingers 7.12502
lthumb 6.69515 39.2941
rfemur -33.8918 -0.0695472 17.2093
rtibia 100.228
rfoot -5.17942 0.589132
rtoes -6.74819
lfemur -12.2805 -7.16484 -18.2812
ltibia 39.7019
lfoot -25.9242 -2.12722
ltoes -29.304
47
root 12.1032 16.15 -14.5096 0.234438 -25.2026 13.7068
lowerback 12.0086 -0.461624 -9.22135
upperback 0.0356154 -1.93426 -0.336879
thorax -6.43549 -0.663675 5.17954
lowerneck -19.8511 -4.31039 -10.7107
upperneck 14.4382 -4.62897 9.39568
head 8.21311 -1.86096 4.33097
rclavicle -7.55382e-015 -3.18055e-015
rhumerus -57.7034 8.83096 -94.4239
rradius 101.505
rwrist -9.71807
rhand -16.7964 25.624
rfingers 7.12502
rthumb 9.43175 -4.14494
lclavicle -7.55382e-015 -3.18055e-015
lhumerus -40.3825 -8.12697 81.6853
lradius 108.673
lwrist 21.1699
lhand -20.3105 6.95613
lfingers 7.12502
lthumb 6.04 36.85
rfemur -35.1607 0.547042 17.1162
rtibia 99.1681
rfoot -6.39573 1.707
rtoes -4.54709
lfemur -9.9678 -7.17968 -18.7835
ltibia 38.7209
lfoot -24.8219 -0.600688
ltoes -32.4639
